<svg class="prefix__h-4 prefix__sm:h-5 prefix__lg:h-6 prefix__w-auto" width="283" height="20" fill="none" xmlns="http://www.w3.org/2000/svg"><text stroke="#8b7070" font-size="25.1" x="13.2" y="19.2" textLength="121.2" fill="#000000">WEBSHARP</text><path clip-rule="evenodd" class="prefix__fill-current prefix__text-brandNew-navy" d="M 114.5 15.2 V 0 h -0.9 v 18.7 h 0.9 v -3.5 z M 12 17.1 C 10.7 18.4 8.9 19 6.4 19 c -2 0 -3.8 -0.5 -5.5 -1.5 v 0.8 c -0.1 0.3 -0.4 0.5 -0.9 0.5 v -6.3 h 0.9 c 0.4 3.7 2.2 5.6 5.4 5.6 c 0.8 0 1.5 -0.1 2.2 -0.4 c 1.4 -0.6 2.2 -1.6 2.2 -3 c 0 -0.6 -0.2 -1.1 -0.5 -1.6 c -0.5 -0.8 -1.6 -1.6 -3.5 -2.4 c -2.1 -0.9 -3.3 -1.4 -3.6 -1.6 c -2 -1 -3 -2.4 -3 -4.1 c 0 -1.1 0.4 -2.1 1.3 -3 C 2.6 0.8 4.4 0.2 6.7 0.2 c 1.8 0 3.5 0.4 5 1.2 c 0 -0.3 0 -0.5 0.1 -0.6 c 0 -0.2 0.2 -0.4 0.5 -0.4 c 0.1 0 0.2 -0.1 0.3 -0.1 v 5.4 h -0.9 c 0 -1.2 -0.3 -2.1 -0.9 -2.9 C 9.9 1.6 8.6 1 6.8 1 c -0.7 0 -1.4 0.2 -2 0.4 c -1.3 0.5 -2 1.4 -2 2.8 c 0 0.5 0.1 1 0.4 1.4 c 0.5 0.8 1.6 1.6 3.5 2.4 c 2.1 0.9 3.3 1.4 3.7 1.6 c 2 1.1 3 2.5 3 4.3 c 0 1.3 -0.5 2.3 -1.4 3.2 z M 28.9 4.5 l 0.5 1.5 h 0.6 L 29.8 0.5 H 15.4 v 0.8 h 2.5 v 16.6 h -2.5 v 0.8 h 14.4 l 0.2 -5.5 h -0.6 l -0.5 1.5 c -0.5 1.7 -1.3 2.7 -2.3 3.1 c -0.1 0 -0.3 0 -0.4 0.1 h -5.6 V 9.8 h 6.5 v -0.9 h -6.5 V 1.3 h 5 c 1.5 0 2.6 1 3.2 2.9 c 0.1 0.1 0.1 0.3 0.1 0.3 z M 46 0.5 h 6.5 v 0.8 h -2.6 v 17.2 l -1.4 0.4 l -12.4 -15 v 14 h 2.2 c 0.3 0.1 0.5 0.4 0.5 0.8 h -6.4 v -0.8 h 2.5 V 1.3 h -2.5 V 0.5 h 4.3 l 12 14.4 V 1.3 H 46 V 0.5 z m 21.7 4 l 0.4 1.5 h 0.6 L 68.6 0.5 H 54.1 v 0.8 h 2.5 v 16.6 h -2.5 v 0.8 h 14.5 l 0.1 -5.5 h -0.6 l -0.4 1.5 c -0.6 1.7 -1.3 2.7 -2.4 3.1 c -0.3 0.1 -0.6 0.1 -1 0.1 h -5 V 9.8 h 6.5 v -0.9 h -6.5 V 1.3 h 5 c 1.5 0 2.6 1 3.3 2.9 c 0 0.1 0 0.3 0.1 0.3 z M 80.6 19 c -2.9 0 -5.2 -0.9 -7 -2.8 c -1.7 -1.8 -2.6 -4 -2.6 -6.7 c 0 -2.1 0.6 -4.1 1.8 -5.8 C 74.6 1.4 77.1 0.2 80.4 0.2 c 1 0 2 0.1 3 0.3 c 1.5 0.4 2.5 0.9 3.1 1.5 v -0.4 c 0 -0.4 0 -0.6 0.1 -0.8 c 0.1 -0.3 0.4 -0.5 0.8 -0.5 l 0.1 5.6 h -0.7 c -0.1 -0.2 -0.2 -0.5 -0.3 -0.8 c -0.1 -0.1 -0.2 -0.3 -0.2 -0.5 C 85.1 2.2 83.2 1 80.6 1 c -1.2 0 -2.2 0.3 -3.2 0.9 c -2.1 1.4 -3.2 3.9 -3.2 7.7 c 0 1.8 0.2 3.3 0.7 4.6 c 1 2.6 2.8 4 5.6 4 c 3.2 -0.1 5.3 -1.7 6.4 -5.1 h 0.7 v 5.8 c -0.2 0 -0.4 -0.1 -0.6 -0.1 c -0.2 -0.2 -0.3 -0.6 -0.3 -1.5 c -2 1.1 -4 1.7 -6.1 1.7 z m 20.9 -1.1 v 0.8 h 6.8 c 0 -0.4 -0.1 -0.7 -0.5 -0.8 H 106.4 L 99.2 0.5 h -1.1 L 91 17.9 h -1.9 v 0.8 h 5.5 c 0 -0.4 -0.1 -0.7 -0.5 -0.8 h -0.2 h -1.6 l 2.3 -5.9 h 6.6 l 2.4 5.9 h -2.1 z M 95 11.1 l 2.9 -7.3 l 3 7.3 H 95 z"/><text textLength="125.9" font-size="24" x="151.5" y="20.1" fill="rgb(104, 24, 24)">STUDIOS</text>
</svg>